<?xml version="1.0" encoding="UTF-8" standalone="no"?>
<!DOCTYPE svg PUBLIC "-//W3C//DTD SVG 1.1//EN"
 "http://www.w3.org/Graphics/SVG/1.1/DTD/svg11.dtd">
<!-- Generated by graphviz version 2.47.3 (20210619.1520)
 -->
<!-- Title: dependencies Pages: 1 -->
<svg width="2517pt" height="247pt"
 viewBox="0.00 0.00 2517.00 246.80" xmlns="http://www.w3.org/2000/svg" xmlns:xlink="http://www.w3.org/1999/xlink">
<g id="graph0" class="graph" transform="scale(1 1) rotate(0) translate(4 242.8)">
<title>dependencies</title>
<polygon fill="white" stroke="transparent" points="-4,4 -4,-242.8 2513,-242.8 2513,4 -4,4"/>
<text text-anchor="middle" x="1254.5" y="-8.2" font-family="sans-serif" font-size="14.00">dependencies</text>
<g id="clust1" class="cluster">
<title>cluster_AppModule</title>
<polygon fill="none" stroke="black" stroke-dasharray="1,5" points="8,-32.8 8,-230.8 2501,-230.8 2501,-32.8 8,-32.8"/>
</g>
<g id="clust16" class="cluster">
<title>cluster_AppModule_imports</title>
<polygon fill="none" stroke="black" points="2349,-40.8 2349,-92.8 2493,-92.8 2493,-40.8 2349,-40.8"/>
</g>
<g id="clust18" class="cluster">
<title>cluster_AppModule_bootstrap</title>
<polygon fill="none" stroke="black" points="1226,-170.8 1226,-222.8 1350,-222.8 1350,-170.8 1226,-170.8"/>
</g>
<g id="clust2" class="cluster">
<title>cluster_AppModule_declarations</title>
<polygon fill="none" stroke="black" points="16,-40.8 16,-92.8 2341,-92.8 2341,-40.8 16,-40.8"/>
</g>
<!-- AppComponent -->
<g id="node1" class="node">
<title>AppComponent</title>
<polygon fill="#ffffb3" stroke="black" points="2332.94,-84.8 2227.06,-84.8 2227.06,-48.8 2332.94,-48.8 2332.94,-84.8"/>
<text text-anchor="middle" x="2280" y="-62.6" font-family="Times,serif" font-size="14.00">AppComponent</text>
</g>
<!-- AppModule -->
<g id="node14" class="node">
<title>AppModule</title>
<polygon fill="#8dd3c7" stroke="black" points="1329.66,-149.8 1326.66,-153.8 1305.66,-153.8 1302.66,-149.8 1246.34,-149.8 1246.34,-113.8 1329.66,-113.8 1329.66,-149.8"/>
<text text-anchor="middle" x="1288" y="-127.6" font-family="Times,serif" font-size="14.00">AppModule</text>
</g>
<!-- AppComponent&#45;&gt;AppModule -->
<g id="edge1" class="edge">
<title>AppComponent&#45;&gt;AppModule</title>
<path fill="none" stroke="black" d="M2280,-84.84C2280,-106.46 2280,-139.8 2280,-139.8 2280,-139.8 1339.68,-139.8 1339.68,-139.8"/>
<polygon fill="black" stroke="black" points="1339.68,-136.3 1329.68,-139.8 1339.68,-143.3 1339.68,-136.3"/>
</g>
<!-- MainViewComponent -->
<g id="node2" class="node">
<title>MainViewComponent</title>
<polygon fill="#ffffb3" stroke="black" points="2209.7,-84.8 2068.3,-84.8 2068.3,-48.8 2209.7,-48.8 2209.7,-84.8"/>
<text text-anchor="middle" x="2139" y="-62.6" font-family="Times,serif" font-size="14.00">MainViewComponent</text>
</g>
<!-- MainViewComponent&#45;&gt;AppModule -->
<g id="edge2" class="edge">
<title>MainViewComponent&#45;&gt;AppModule</title>
<path fill="none" stroke="black" d="M2139,-85.02C2139,-105.17 2139,-134.8 2139,-134.8 2139,-134.8 1339.91,-134.8 1339.91,-134.8"/>
<polygon fill="black" stroke="black" points="1339.91,-131.3 1329.91,-134.8 1339.91,-138.3 1339.91,-131.3"/>
</g>
<!-- MovieCardComponent -->
<g id="node3" class="node">
<title>MovieCardComponent</title>
<polygon fill="#ffffb3" stroke="black" points="2050.59,-84.8 1905.41,-84.8 1905.41,-48.8 2050.59,-48.8 2050.59,-84.8"/>
<text text-anchor="middle" x="1978" y="-62.6" font-family="Times,serif" font-size="14.00">MovieCardComponent</text>
</g>
<!-- MovieCardComponent&#45;&gt;AppModule -->
<g id="edge3" class="edge">
<title>MovieCardComponent&#45;&gt;AppModule</title>
<path fill="none" stroke="black" d="M1978,-85.02C1978,-103.63 1978,-129.8 1978,-129.8 1978,-129.8 1339.87,-129.8 1339.87,-129.8"/>
<polygon fill="black" stroke="black" points="1339.87,-126.3 1329.87,-129.8 1339.87,-133.3 1339.87,-126.3"/>
</g>
<!-- MovieDirectorViewComponent -->
<g id="node4" class="node">
<title>MovieDirectorViewComponent</title>
<polygon fill="#ffffb3" stroke="black" points="1887.34,-84.8 1692.66,-84.8 1692.66,-48.8 1887.34,-48.8 1887.34,-84.8"/>
<text text-anchor="middle" x="1790" y="-62.6" font-family="Times,serif" font-size="14.00">MovieDirectorViewComponent</text>
</g>
<!-- MovieDirectorViewComponent&#45;&gt;AppModule -->
<g id="edge4" class="edge">
<title>MovieDirectorViewComponent&#45;&gt;AppModule</title>
<path fill="none" stroke="black" d="M1790,-84.83C1790,-101.86 1790,-124.8 1790,-124.8 1790,-124.8 1339.94,-124.8 1339.94,-124.8"/>
<polygon fill="black" stroke="black" points="1339.94,-121.3 1329.94,-124.8 1339.94,-128.3 1339.94,-121.3"/>
</g>
<!-- MovieGenreViewComponent -->
<g id="node5" class="node">
<title>MovieGenreViewComponent</title>
<polygon fill="#ffffb3" stroke="black" points="1674.4,-84.8 1491.6,-84.8 1491.6,-48.8 1674.4,-48.8 1674.4,-84.8"/>
<text text-anchor="middle" x="1583" y="-62.6" font-family="Times,serif" font-size="14.00">MovieGenreViewComponent</text>
</g>
<!-- MovieGenreViewComponent&#45;&gt;AppModule -->
<g id="edge5" class="edge">
<title>MovieGenreViewComponent&#45;&gt;AppModule</title>
<path fill="none" stroke="black" d="M1583,-85.04C1583,-100.37 1583,-119.8 1583,-119.8 1583,-119.8 1339.95,-119.8 1339.95,-119.8"/>
<polygon fill="black" stroke="black" points="1339.95,-116.3 1329.95,-119.8 1339.95,-123.3 1339.95,-116.3"/>
</g>
<!-- MovieSummaryComponent -->
<g id="node6" class="node">
<title>MovieSummaryComponent</title>
<polygon fill="#ffffb3" stroke="black" points="1474.32,-84.8 1301.68,-84.8 1301.68,-48.8 1474.32,-48.8 1474.32,-84.8"/>
<text text-anchor="middle" x="1388" y="-62.6" font-family="Times,serif" font-size="14.00">MovieSummaryComponent</text>
</g>
<!-- MovieSummaryComponent&#45;&gt;AppModule -->
<g id="edge6" class="edge">
<title>MovieSummaryComponent&#45;&gt;AppModule</title>
<path fill="none" stroke="black" d="M1315.83,-84.91C1315.83,-84.91 1315.83,-103.79 1315.83,-103.79"/>
<polygon fill="black" stroke="black" points="1312.33,-103.79 1315.83,-113.79 1319.33,-103.79 1312.33,-103.79"/>
</g>
<!-- MovieUserFavoriteComponent -->
<g id="node7" class="node">
<title>MovieUserFavoriteComponent</title>
<polygon fill="#ffffb3" stroke="black" points="1283.46,-84.8 1092.54,-84.8 1092.54,-48.8 1283.46,-48.8 1283.46,-84.8"/>
<text text-anchor="middle" x="1188" y="-62.6" font-family="Times,serif" font-size="14.00">MovieUserFavoriteComponent</text>
</g>
<!-- MovieUserFavoriteComponent&#45;&gt;AppModule -->
<g id="edge7" class="edge">
<title>MovieUserFavoriteComponent&#45;&gt;AppModule</title>
<path fill="none" stroke="black" d="M1264.83,-84.91C1264.83,-84.91 1264.83,-103.79 1264.83,-103.79"/>
<polygon fill="black" stroke="black" points="1261.33,-103.79 1264.83,-113.79 1268.33,-103.79 1261.33,-103.79"/>
</g>
<!-- NavbarComponent -->
<g id="node8" class="node">
<title>NavbarComponent</title>
<polygon fill="#ffffb3" stroke="black" points="1074.03,-84.8 951.97,-84.8 951.97,-48.8 1074.03,-48.8 1074.03,-84.8"/>
<text text-anchor="middle" x="1013" y="-62.6" font-family="Times,serif" font-size="14.00">NavbarComponent</text>
</g>
<!-- NavbarComponent&#45;&gt;AppModule -->
<g id="edge8" class="edge">
<title>NavbarComponent&#45;&gt;AppModule</title>
<path fill="none" stroke="black" d="M1013,-85.04C1013,-100.37 1013,-119.8 1013,-119.8 1013,-119.8 1236.23,-119.8 1236.23,-119.8"/>
<polygon fill="black" stroke="black" points="1236.23,-123.3 1246.23,-119.8 1236.23,-116.3 1236.23,-123.3"/>
</g>
<!-- ProfileViewComponent -->
<g id="node9" class="node">
<title>ProfileViewComponent</title>
<polygon fill="#ffffb3" stroke="black" points="933.75,-84.8 784.25,-84.8 784.25,-48.8 933.75,-48.8 933.75,-84.8"/>
<text text-anchor="middle" x="859" y="-62.6" font-family="Times,serif" font-size="14.00">ProfileViewComponent</text>
</g>
<!-- ProfileViewComponent&#45;&gt;AppModule -->
<g id="edge9" class="edge">
<title>ProfileViewComponent&#45;&gt;AppModule</title>
<path fill="none" stroke="black" d="M859,-84.83C859,-101.86 859,-124.8 859,-124.8 859,-124.8 1236.08,-124.8 1236.08,-124.8"/>
<polygon fill="black" stroke="black" points="1236.08,-128.3 1246.08,-124.8 1236.08,-121.3 1236.08,-128.3"/>
</g>
<!-- UserLoginFormComponent -->
<g id="node10" class="node">
<title>UserLoginFormComponent</title>
<polygon fill="#ffffb3" stroke="black" points="765.54,-84.8 594.46,-84.8 594.46,-48.8 765.54,-48.8 765.54,-84.8"/>
<text text-anchor="middle" x="680" y="-62.6" font-family="Times,serif" font-size="14.00">UserLoginFormComponent</text>
</g>
<!-- UserLoginFormComponent&#45;&gt;AppModule -->
<g id="edge10" class="edge">
<title>UserLoginFormComponent&#45;&gt;AppModule</title>
<path fill="none" stroke="black" d="M680,-85.02C680,-103.63 680,-129.8 680,-129.8 680,-129.8 1236.21,-129.8 1236.21,-129.8"/>
<polygon fill="black" stroke="black" points="1236.21,-133.3 1246.21,-129.8 1236.21,-126.3 1236.21,-133.3"/>
</g>
<!-- UserRegistrationFormComponent -->
<g id="node11" class="node">
<title>UserRegistrationFormComponent</title>
<polygon fill="#ffffb3" stroke="black" points="576.03,-84.8 369.97,-84.8 369.97,-48.8 576.03,-48.8 576.03,-84.8"/>
<text text-anchor="middle" x="473" y="-62.6" font-family="Times,serif" font-size="14.00">UserRegistrationFormComponent</text>
</g>
<!-- UserRegistrationFormComponent&#45;&gt;AppModule -->
<g id="edge11" class="edge">
<title>UserRegistrationFormComponent&#45;&gt;AppModule</title>
<path fill="none" stroke="black" d="M473,-85.02C473,-105.17 473,-134.8 473,-134.8 473,-134.8 1236.18,-134.8 1236.18,-134.8"/>
<polygon fill="black" stroke="black" points="1236.18,-138.3 1246.18,-134.8 1236.18,-131.3 1236.18,-138.3"/>
</g>
<!-- UserUpdateComponent -->
<g id="node12" class="node">
<title>UserUpdateComponent</title>
<polygon fill="#ffffb3" stroke="black" points="352.19,-84.8 203.81,-84.8 203.81,-48.8 352.19,-48.8 352.19,-84.8"/>
<text text-anchor="middle" x="278" y="-62.6" font-family="Times,serif" font-size="14.00">UserUpdateComponent</text>
</g>
<!-- UserUpdateComponent&#45;&gt;AppModule -->
<g id="edge12" class="edge">
<title>UserUpdateComponent&#45;&gt;AppModule</title>
<path fill="none" stroke="black" d="M278,-84.84C278,-106.46 278,-139.8 278,-139.8 278,-139.8 1236.21,-139.8 1236.21,-139.8"/>
<polygon fill="black" stroke="black" points="1236.21,-143.3 1246.21,-139.8 1236.21,-136.3 1236.21,-143.3"/>
</g>
<!-- WelcomePageComponent -->
<g id="node13" class="node">
<title>WelcomePageComponent</title>
<polygon fill="#ffffb3" stroke="black" points="186.18,-84.8 23.82,-84.8 23.82,-48.8 186.18,-48.8 186.18,-84.8"/>
<text text-anchor="middle" x="105" y="-62.6" font-family="Times,serif" font-size="14.00">WelcomePageComponent</text>
</g>
<!-- WelcomePageComponent&#45;&gt;AppModule -->
<g id="edge13" class="edge">
<title>WelcomePageComponent&#45;&gt;AppModule</title>
<path fill="none" stroke="black" d="M105,-84.89C105,-107.93 105,-144.8 105,-144.8 105,-144.8 1236.24,-144.8 1236.24,-144.8"/>
<polygon fill="black" stroke="black" points="1236.24,-148.3 1246.24,-144.8 1236.24,-141.3 1236.24,-148.3"/>
</g>
<!-- AppComponent  -->
<g id="node16" class="node">
<title>AppComponent </title>
<polygon fill="#80b1d3" stroke="black" points="1342.44,-214.8 1233.56,-214.8 1233.56,-178.8 1342.44,-178.8 1342.44,-214.8"/>
<text text-anchor="middle" x="1288" y="-192.6" font-family="Times,serif" font-size="14.00">AppComponent </text>
</g>
<!-- AppModule&#45;&gt;AppComponent  -->
<g id="edge15" class="edge">
<title>AppModule&#45;&gt;AppComponent </title>
<path fill="none" stroke="black" stroke-dasharray="1,5" d="M1288,-149.91C1288,-149.91 1288,-168.79 1288,-168.79"/>
<polygon fill="black" stroke="black" points="1284.5,-168.79 1288,-178.79 1291.5,-168.79 1284.5,-168.79"/>
</g>
<!-- AppRoutingModule -->
<g id="node15" class="node">
<title>AppRoutingModule</title>
<polygon fill="#8dd3c7" stroke="black" points="2485.27,-84.8 2482.27,-88.8 2461.27,-88.8 2458.27,-84.8 2356.73,-84.8 2356.73,-48.8 2485.27,-48.8 2485.27,-84.8"/>
<text text-anchor="middle" x="2421" y="-62.6" font-family="Times,serif" font-size="14.00">AppRoutingModule</text>
</g>
<!-- AppRoutingModule&#45;&gt;AppModule -->
<g id="edge14" class="edge">
<title>AppRoutingModule&#45;&gt;AppModule</title>
<path fill="none" stroke="black" d="M2421,-84.89C2421,-107.93 2421,-144.8 2421,-144.8 2421,-144.8 1339.67,-144.8 1339.67,-144.8"/>
<polygon fill="black" stroke="black" points="1339.67,-141.3 1329.67,-144.8 1339.67,-148.3 1339.67,-141.3"/>
</g>
</g>
</svg>
