<?xml version="1.0" encoding="UTF-8" standalone="no"?>
<!DOCTYPE svg PUBLIC "-//W3C//DTD SVG 1.1//EN"
 "http://www.w3.org/Graphics/SVG/1.1/DTD/svg11.dtd">
<!-- Generated by graphviz version 2.47.3 (20210619.1520)
 -->
<!-- Title: dependencies Pages: 1 -->
<svg width="2517pt" height="247pt"
 viewBox="0.00 0.00 2517.00 246.80" xmlns="http://www.w3.org/2000/svg" xmlns:xlink="http://www.w3.org/1999/xlink">
<g id="graph0" class="graph" transform="scale(1 1) rotate(0) translate(4 242.8)">
<title>dependencies</title>
<polygon fill="white" stroke="transparent" points="-4,4 -4,-242.8 2513,-242.8 2513,4 -4,4"/>
<text text-anchor="middle" x="1254.5" y="-8.2" font-family="sans-serif" font-size="14.00">dependencies</text>
<g id="clust1" class="cluster">
<title>cluster_AppModule</title>
<polygon fill="none" stroke="black" stroke-dasharray="1,5" points="8,-32.8 8,-230.8 2501,-230.8 2501,-32.8 8,-32.8"/>
</g>
<g id="clust2" class="cluster">
<title>cluster_AppModule_declarations</title>
<polygon fill="none" stroke="black" points="168,-40.8 168,-92.8 2493,-92.8 2493,-40.8 168,-40.8"/>
</g>
<g id="clust16" class="cluster">
<title>cluster_AppModule_imports</title>
<polygon fill="none" stroke="black" points="16,-40.8 16,-92.8 160,-92.8 160,-40.8 16,-40.8"/>
</g>
<g id="clust18" class="cluster">
<title>cluster_AppModule_bootstrap</title>
<polygon fill="none" stroke="black" points="1190,-170.8 1190,-222.8 1314,-222.8 1314,-170.8 1190,-170.8"/>
</g>
<!-- AppComponent -->
<g id="node1" class="node">
<title>AppComponent</title>
<polygon fill="#ffffb3" stroke="black" points="2484.94,-84.8 2379.06,-84.8 2379.06,-48.8 2484.94,-48.8 2484.94,-84.8"/>
<text text-anchor="middle" x="2432" y="-62.6" font-family="Times,serif" font-size="14.00">AppComponent</text>
</g>
<!-- AppModule -->
<g id="node14" class="node">
<title>AppModule</title>
<polygon fill="#8dd3c7" stroke="black" points="1293.66,-149.8 1290.66,-153.8 1269.66,-153.8 1266.66,-149.8 1210.34,-149.8 1210.34,-113.8 1293.66,-113.8 1293.66,-149.8"/>
<text text-anchor="middle" x="1252" y="-127.6" font-family="Times,serif" font-size="14.00">AppModule</text>
</g>
<!-- AppComponent&#45;&gt;AppModule -->
<g id="edge1" class="edge">
<title>AppComponent&#45;&gt;AppModule</title>
<path fill="none" stroke="black" d="M2432,-84.89C2432,-107.93 2432,-144.8 2432,-144.8 2432,-144.8 1304,-144.8 1304,-144.8"/>
<polygon fill="black" stroke="black" points="1304,-141.3 1294,-144.8 1304,-148.3 1304,-141.3"/>
</g>
<!-- MainViewComponent -->
<g id="node2" class="node">
<title>MainViewComponent</title>
<polygon fill="#ffffb3" stroke="black" points="2361.7,-84.8 2220.3,-84.8 2220.3,-48.8 2361.7,-48.8 2361.7,-84.8"/>
<text text-anchor="middle" x="2291" y="-62.6" font-family="Times,serif" font-size="14.00">MainViewComponent</text>
</g>
<!-- MainViewComponent&#45;&gt;AppModule -->
<g id="edge2" class="edge">
<title>MainViewComponent&#45;&gt;AppModule</title>
<path fill="none" stroke="black" d="M2291,-84.84C2291,-106.46 2291,-139.8 2291,-139.8 2291,-139.8 1303.69,-139.8 1303.69,-139.8"/>
<polygon fill="black" stroke="black" points="1303.69,-136.3 1293.69,-139.8 1303.69,-143.3 1303.69,-136.3"/>
</g>
<!-- MovieCardComponent -->
<g id="node3" class="node">
<title>MovieCardComponent</title>
<polygon fill="#ffffb3" stroke="black" points="2202.59,-84.8 2057.41,-84.8 2057.41,-48.8 2202.59,-48.8 2202.59,-84.8"/>
<text text-anchor="middle" x="2130" y="-62.6" font-family="Times,serif" font-size="14.00">MovieCardComponent</text>
</g>
<!-- MovieCardComponent&#45;&gt;AppModule -->
<g id="edge3" class="edge">
<title>MovieCardComponent&#45;&gt;AppModule</title>
<path fill="none" stroke="black" d="M2130,-85.02C2130,-105.17 2130,-134.8 2130,-134.8 2130,-134.8 1303.76,-134.8 1303.76,-134.8"/>
<polygon fill="black" stroke="black" points="1303.76,-131.3 1293.76,-134.8 1303.76,-138.3 1303.76,-131.3"/>
</g>
<!-- MovieDirectorViewComponent -->
<g id="node4" class="node">
<title>MovieDirectorViewComponent</title>
<polygon fill="#ffffb3" stroke="black" points="2039.34,-84.8 1844.66,-84.8 1844.66,-48.8 2039.34,-48.8 2039.34,-84.8"/>
<text text-anchor="middle" x="1942" y="-62.6" font-family="Times,serif" font-size="14.00">MovieDirectorViewComponent</text>
</g>
<!-- MovieDirectorViewComponent&#45;&gt;AppModule -->
<g id="edge4" class="edge">
<title>MovieDirectorViewComponent&#45;&gt;AppModule</title>
<path fill="none" stroke="black" d="M1942,-85.02C1942,-103.63 1942,-129.8 1942,-129.8 1942,-129.8 1303.87,-129.8 1303.87,-129.8"/>
<polygon fill="black" stroke="black" points="1303.87,-126.3 1293.87,-129.8 1303.87,-133.3 1303.87,-126.3"/>
</g>
<!-- MovieGenreViewComponent -->
<g id="node5" class="node">
<title>MovieGenreViewComponent</title>
<polygon fill="#ffffb3" stroke="black" points="1826.4,-84.8 1643.6,-84.8 1643.6,-48.8 1826.4,-48.8 1826.4,-84.8"/>
<text text-anchor="middle" x="1735" y="-62.6" font-family="Times,serif" font-size="14.00">MovieGenreViewComponent</text>
</g>
<!-- MovieGenreViewComponent&#45;&gt;AppModule -->
<g id="edge5" class="edge">
<title>MovieGenreViewComponent&#45;&gt;AppModule</title>
<path fill="none" stroke="black" d="M1735,-84.83C1735,-101.86 1735,-124.8 1735,-124.8 1735,-124.8 1304.02,-124.8 1304.02,-124.8"/>
<polygon fill="black" stroke="black" points="1304.02,-121.3 1294.02,-124.8 1304.02,-128.3 1304.02,-121.3"/>
</g>
<!-- MovieSummaryComponent -->
<g id="node6" class="node">
<title>MovieSummaryComponent</title>
<polygon fill="#ffffb3" stroke="black" points="1626.32,-84.8 1453.68,-84.8 1453.68,-48.8 1626.32,-48.8 1626.32,-84.8"/>
<text text-anchor="middle" x="1540" y="-62.6" font-family="Times,serif" font-size="14.00">MovieSummaryComponent</text>
</g>
<!-- MovieSummaryComponent&#45;&gt;AppModule -->
<g id="edge6" class="edge">
<title>MovieSummaryComponent&#45;&gt;AppModule</title>
<path fill="none" stroke="black" d="M1540,-85.04C1540,-100.37 1540,-119.8 1540,-119.8 1540,-119.8 1303.88,-119.8 1303.88,-119.8"/>
<polygon fill="black" stroke="black" points="1303.88,-116.3 1293.88,-119.8 1303.88,-123.3 1303.88,-116.3"/>
</g>
<!-- MovieUserFavoriteComponent -->
<g id="node7" class="node">
<title>MovieUserFavoriteComponent</title>
<polygon fill="#ffffb3" stroke="black" points="1435.46,-84.8 1244.54,-84.8 1244.54,-48.8 1435.46,-48.8 1435.46,-84.8"/>
<text text-anchor="middle" x="1340" y="-62.6" font-family="Times,serif" font-size="14.00">MovieUserFavoriteComponent</text>
</g>
<!-- MovieUserFavoriteComponent&#45;&gt;AppModule -->
<g id="edge7" class="edge">
<title>MovieUserFavoriteComponent&#45;&gt;AppModule</title>
<path fill="none" stroke="black" d="M1269.17,-84.91C1269.17,-84.91 1269.17,-103.79 1269.17,-103.79"/>
<polygon fill="black" stroke="black" points="1265.67,-103.79 1269.17,-113.79 1272.67,-103.79 1265.67,-103.79"/>
</g>
<!-- NavbarComponent -->
<g id="node8" class="node">
<title>NavbarComponent</title>
<polygon fill="#ffffb3" stroke="black" points="1226.03,-84.8 1103.97,-84.8 1103.97,-48.8 1226.03,-48.8 1226.03,-84.8"/>
<text text-anchor="middle" x="1165" y="-62.6" font-family="Times,serif" font-size="14.00">NavbarComponent</text>
</g>
<!-- NavbarComponent&#45;&gt;AppModule -->
<g id="edge8" class="edge">
<title>NavbarComponent&#45;&gt;AppModule</title>
<path fill="none" stroke="black" d="M1218.22,-84.91C1218.22,-84.91 1218.22,-103.79 1218.22,-103.79"/>
<polygon fill="black" stroke="black" points="1214.72,-103.79 1218.22,-113.79 1221.72,-103.79 1214.72,-103.79"/>
</g>
<!-- ProfileViewComponent -->
<g id="node9" class="node">
<title>ProfileViewComponent</title>
<polygon fill="#ffffb3" stroke="black" points="1085.75,-84.8 936.25,-84.8 936.25,-48.8 1085.75,-48.8 1085.75,-84.8"/>
<text text-anchor="middle" x="1011" y="-62.6" font-family="Times,serif" font-size="14.00">ProfileViewComponent</text>
</g>
<!-- ProfileViewComponent&#45;&gt;AppModule -->
<g id="edge9" class="edge">
<title>ProfileViewComponent&#45;&gt;AppModule</title>
<path fill="none" stroke="black" d="M1011,-85.04C1011,-100.37 1011,-119.8 1011,-119.8 1011,-119.8 1200.3,-119.8 1200.3,-119.8"/>
<polygon fill="black" stroke="black" points="1200.3,-123.3 1210.3,-119.8 1200.3,-116.3 1200.3,-123.3"/>
</g>
<!-- UserLoginFormComponent -->
<g id="node10" class="node">
<title>UserLoginFormComponent</title>
<polygon fill="#ffffb3" stroke="black" points="917.54,-84.8 746.46,-84.8 746.46,-48.8 917.54,-48.8 917.54,-84.8"/>
<text text-anchor="middle" x="832" y="-62.6" font-family="Times,serif" font-size="14.00">UserLoginFormComponent</text>
</g>
<!-- UserLoginFormComponent&#45;&gt;AppModule -->
<g id="edge10" class="edge">
<title>UserLoginFormComponent&#45;&gt;AppModule</title>
<path fill="none" stroke="black" d="M832,-84.83C832,-101.86 832,-124.8 832,-124.8 832,-124.8 1200.19,-124.8 1200.19,-124.8"/>
<polygon fill="black" stroke="black" points="1200.19,-128.3 1210.19,-124.8 1200.19,-121.3 1200.19,-128.3"/>
</g>
<!-- UserRegistrationFormComponent -->
<g id="node11" class="node">
<title>UserRegistrationFormComponent</title>
<polygon fill="#ffffb3" stroke="black" points="728.03,-84.8 521.97,-84.8 521.97,-48.8 728.03,-48.8 728.03,-84.8"/>
<text text-anchor="middle" x="625" y="-62.6" font-family="Times,serif" font-size="14.00">UserRegistrationFormComponent</text>
</g>
<!-- UserRegistrationFormComponent&#45;&gt;AppModule -->
<g id="edge11" class="edge">
<title>UserRegistrationFormComponent&#45;&gt;AppModule</title>
<path fill="none" stroke="black" d="M625,-85.02C625,-103.63 625,-129.8 625,-129.8 625,-129.8 1199.89,-129.8 1199.89,-129.8"/>
<polygon fill="black" stroke="black" points="1199.89,-133.3 1209.89,-129.8 1199.89,-126.3 1199.89,-133.3"/>
</g>
<!-- UserUpdateComponent -->
<g id="node12" class="node">
<title>UserUpdateComponent</title>
<polygon fill="#ffffb3" stroke="black" points="504.19,-84.8 355.81,-84.8 355.81,-48.8 504.19,-48.8 504.19,-84.8"/>
<text text-anchor="middle" x="430" y="-62.6" font-family="Times,serif" font-size="14.00">UserUpdateComponent</text>
</g>
<!-- UserUpdateComponent&#45;&gt;AppModule -->
<g id="edge12" class="edge">
<title>UserUpdateComponent&#45;&gt;AppModule</title>
<path fill="none" stroke="black" d="M430,-85.02C430,-105.17 430,-134.8 430,-134.8 430,-134.8 1200.11,-134.8 1200.11,-134.8"/>
<polygon fill="black" stroke="black" points="1200.11,-138.3 1210.11,-134.8 1200.11,-131.3 1200.11,-138.3"/>
</g>
<!-- WelcomePageComponent -->
<g id="node13" class="node">
<title>WelcomePageComponent</title>
<polygon fill="#ffffb3" stroke="black" points="338.18,-84.8 175.82,-84.8 175.82,-48.8 338.18,-48.8 338.18,-84.8"/>
<text text-anchor="middle" x="257" y="-62.6" font-family="Times,serif" font-size="14.00">WelcomePageComponent</text>
</g>
<!-- WelcomePageComponent&#45;&gt;AppModule -->
<g id="edge13" class="edge">
<title>WelcomePageComponent&#45;&gt;AppModule</title>
<path fill="none" stroke="black" d="M257,-84.84C257,-106.46 257,-139.8 257,-139.8 257,-139.8 1200.2,-139.8 1200.2,-139.8"/>
<polygon fill="black" stroke="black" points="1200.2,-143.3 1210.2,-139.8 1200.2,-136.3 1200.2,-143.3"/>
</g>
<!-- AppComponent  -->
<g id="node16" class="node">
<title>AppComponent </title>
<polygon fill="#80b1d3" stroke="black" points="1306.44,-214.8 1197.56,-214.8 1197.56,-178.8 1306.44,-178.8 1306.44,-214.8"/>
<text text-anchor="middle" x="1252" y="-192.6" font-family="Times,serif" font-size="14.00">AppComponent </text>
</g>
<!-- AppModule&#45;&gt;AppComponent  -->
<g id="edge15" class="edge">
<title>AppModule&#45;&gt;AppComponent </title>
<path fill="none" stroke="black" stroke-dasharray="1,5" d="M1252,-149.91C1252,-149.91 1252,-168.79 1252,-168.79"/>
<polygon fill="black" stroke="black" points="1248.5,-168.79 1252,-178.79 1255.5,-168.79 1248.5,-168.79"/>
</g>
<!-- AppRoutingModule -->
<g id="node15" class="node">
<title>AppRoutingModule</title>
<polygon fill="#8dd3c7" stroke="black" points="152.27,-84.8 149.27,-88.8 128.27,-88.8 125.27,-84.8 23.73,-84.8 23.73,-48.8 152.27,-48.8 152.27,-84.8"/>
<text text-anchor="middle" x="88" y="-62.6" font-family="Times,serif" font-size="14.00">AppRoutingModule</text>
</g>
<!-- AppRoutingModule&#45;&gt;AppModule -->
<g id="edge14" class="edge">
<title>AppRoutingModule&#45;&gt;AppModule</title>
<path fill="none" stroke="black" d="M88,-84.89C88,-107.93 88,-144.8 88,-144.8 88,-144.8 1200.23,-144.8 1200.23,-144.8"/>
<polygon fill="black" stroke="black" points="1200.23,-148.3 1210.23,-144.8 1200.23,-141.3 1200.23,-148.3"/>
</g>
</g>
</svg>
